<?xml version="1.0" encoding="utf-8"?>
<!-- Generator: Adobe Illustrator 22.1.0, SVG Export Plug-In . SVG Version: 6.00 Build 0)  -->
<svg version="1.1" id="Layer_1" xmlns="http://www.w3.org/2000/svg" xmlns:xlink="http://www.w3.org/1999/xlink" x="0px" y="0px"
	 viewBox="0 0 374 125.7" style="enable-background:new 0 0 374 125.7;" xml:space="preserve">
<style type="text/css">
	.st0{clip-path:url(#SVGID_2_);fill:#CF2E33;}
	.st1{clip-path:url(#SVGID_2_);}
	.st2{clip-path:url(#SVGID_4_);}
</style>
<g>
	<rect x="177.5" y="16.3" width="11.3" height="11.3"/>
	<g>
		<defs>
			<rect id="SVGID_1_" x="13.1" y="16.3" width="351.5" height="96.5"/>
		</defs>
		<clipPath id="SVGID_2_">
			<use xlink:href="#SVGID_1_"  style="overflow:visible;"/>
		</clipPath>
		<path class="st0" d="M58.5,33.3v28.3c0,9.4-7.6,17-17,17c-9.4,0-17-7.6-17-17V33.3H13.1v28.3C13.1,77.3,25.8,90,41.5,90
			c15.7,0,28.3-12.7,28.3-28.3V33.3H58.5z"/>
		<path class="st0" d="M103.8,33.3c-15.7,0-28.3,12.7-28.3,28.3V107h11.3V61.7l0,0c0-9.4,7.6-17,17-17s17,7.6,17,17
			c0,9.4-7.6,17-17,17V90c15.7,0,28.3-12.7,28.3-28.3C132.2,46,119.5,33.3,103.8,33.3"/>
		<path class="st1" d="M166.2,44.6V33.3h-17v-17h-11.3v45.4c0,15.7,12.7,28.3,28.3,28.3h0V78.7c-9.4,0-17-7.6-17-17v-17H166.2z"/>
	</g>
	<rect x="177.5" y="33.3" width="11.3" height="56.7"/>
	<g>
		<defs>
			<rect id="SVGID_3_" x="13.1" y="16.3" width="351.5" height="96.5"/>
		</defs>
		<clipPath id="SVGID_4_">
			<use xlink:href="#SVGID_3_"  style="overflow:visible;"/>
		</clipPath>
		<path class="st2" d="M273.9,33.3c-9.3,0-17.5,4.5-22.7,11.3c-5.2-6.9-13.4-11.3-22.7-11.3c-15.7,0-28.3,12.7-28.3,28.3l0,0V90
			h11.3V61.7c0-9.4,7.6-17,17-17c9.4,0,17,7.6,17,17V90h11.3V61.7l0,0c0-9.4,7.6-17,17-17c9.4,0,17,7.6,17,17h0V90h11.3V61.7
			C302.3,46,289.6,33.3,273.9,33.3"/>
		<path class="st2" d="M336.3,33.3c-15.7,0-28.4,12.7-28.4,28.3c0,15.7,12.7,28.3,28.4,28.3V78.7c-9.4,0-17-7.6-17-17
			c0-9.4,7.6-17,17-17c7.4,0,13.7,4.7,16,11.3h-16v11.3h27.8c0.4-1.8,0.6-3.7,0.6-5.7C364.6,46,351.9,33.3,336.3,33.3"/>
	</g>
</g>
</svg>
